HIERARCHY
ROOT Hips
{
	OFFSET 0.00000 0.00000 0.00000
	CHANNELS 6 Xposition Yposition Zposition Zrotation Yrotation Xrotation 
	JOINT LHipJoint
	{
		OFFSET 0 0 0
		CHANNELS 3 Zrotation Yrotation Xrotation
		JOINT LeftHip
		{
			OFFSET 2.36090 -1.39315 1.24752
			CHANNELS 3 Zrotation Yrotation Xrotation
			JOINT LeftKnee
			{
				OFFSET 2.06810 -5.68207 0.00000
				CHANNELS 3 Zrotation Yrotation Xrotation
				JOINT LeftAnkle
				{
					OFFSET 2.46631 -6.77613 0.00000
					CHANNELS 3 Zrotation Yrotation Xrotation
					JOINT LeftToe
					{
						OFFSET 0.26031 -0.71520 1.99545
						CHANNELS 3 Zrotation Yrotation Xrotation
						End Site
						{
							OFFSET 0.00000 -0.00000 1.05957
						}
					}
				}
			}
		}
	}
	JOINT RHipJoint
	{
		OFFSET 0 0 0
		CHANNELS 3 Zrotation Yrotation Xrotation
		JOINT RightHip
		{
			OFFSET -2.25243 -1.39315 1.24752
			CHANNELS 3 Zrotation Yrotation Xrotation
			JOINT RightKnee
			{
				OFFSET -2.17343 -5.97145 0.00000
				CHANNELS 3 Zrotation Yrotation Xrotation
				JOINT RightAnkle
				{
					OFFSET -2.52372 -6.93386 0.00000
					CHANNELS 3 Zrotation Yrotation Xrotation
					JOINT RightToe
					{
						OFFSET -0.22538 -0.61923 2.11447
						CHANNELS 3 Zrotation Yrotation Xrotation
						End Site
						{
							OFFSET -0.00000 -0.00000 1.10506
						}
					}
				}
			}
		}
	}
	JOINT lowerback
	{
		OFFSET 0 0 0
		CHANNELS 3 Zrotation Yrotation Xrotation
		JOINT Chest
		{
			OFFSET 0.01594 2.13103 0.08007
			CHANNELS 3 Zrotation Yrotation Xrotation
			JOINT Chest2
			{
				OFFSET 0.01393 2.09723 0.18338
				CHANNELS 3 Zrotation Yrotation Xrotation
				JOINT lowerneck
				{
					OFFSET 0 0 0
					CHANNELS 3 Zrotation Yrotation Xrotation
					JOINT Neck
					{
						OFFSET 0.05351 1.38915 0.32494
						CHANNELS 3 Zrotation Yrotation Xrotation
						JOINT Head
						{
							OFFSET 0.00711 1.45992 -0.21666
							CHANNELS 3 Zrotation Yrotation Xrotation
							End Site
							{
								OFFSET -0.00433 1.47702 -0.11056
							}
						}
					}
				}
				JOINT LeftCollar
				{
					OFFSET 0 0 0
					CHANNELS 3 Zrotation Yrotation Xrotation
					JOINT LeftShoulder
					{
						OFFSET 2.87198 0.92249 0.11132
CHANNELS 3 Zrotation Xrotation Yrotation
						JOINT LeftElbow
						{
OFFSET 0 -5.527310 0.000000
CHANNELS 3 Zrotation Xrotation Yrotation
							JOINT LeftWrist
							{
OFFSET 0 -3.110590 0.000000
CHANNELS 3 Zrotation Xrotation Yrotation
								JOINT lhand
								{
									OFFSET 0 0 0
CHANNELS 3 Zrotation Xrotation Yrotation
									JOINT LFingers
									{
OFFSET 0 -0.419630 0.000000
CHANNELS 3 Zrotation Xrotation Yrotation
										End Site
										{
OFFSET 0 -0.338310 0.000000
										}
									}
								}
								JOINT LThumb
								{
OFFSET 0 0.000000 0.000000
CHANNELS 3 Zrotation Xrotation Yrotation
									End Site
									{
OFFSET 0 -0.343480 0.343480
									}
								}
							}
						}
					}
				}
				JOINT RightCollar
				{
					OFFSET 0 0 0
					CHANNELS 3 Zrotation Yrotation Xrotation
					JOINT RightShoulder
					{
						OFFSET -2.94710 0.68072 0.32187
CHANNELS 3 Zrotation Xrotation Yrotation
						JOINT RightElbow
						{
OFFSET 0 -5.253960 -0.000000
CHANNELS 3 Zrotation Xrotation Yrotation
							JOINT RightWrist
							{
OFFSET 0 -3.105670 0.000000
CHANNELS 3 Zrotation Xrotation Yrotation
								JOINT rhand
								{
									OFFSET 0 0 0
CHANNELS 3 Zrotation Xrotation Yrotation
									JOINT RFingers
									{
OFFSET 0 -0.498680 0.000000
CHANNELS 3 Zrotation Xrotation Yrotation
										End Site
										{
OFFSET 0 -0.402040 0.000000
										}
									}
								}
								JOINT RThumb
								{
OFFSET 0 0.000000 0.000000
CHANNELS 3 Zrotation Xrotation Yrotation
									End Site
									{
OFFSET 0 -0.408180 0.408180
									}
								}
							}
						}
					}
				}
			}
		}
	}
}
MOTION
Frames: 9
Frame Time: 0.008333333333333333
5.909000 14.012700 -1.236800 -1.168000 -4.561200 34.939300 0.000000 0.000000 0.000000 -5.684900 -20.904900 -78.496600 13.197500 18.852300 69.737900 1.678900 0.314300 -24.633100 0.522400 -4.632100 -12.862200 0.000000 0.000000 0.000000 6.326000 23.116200 -77.466300 -14.634900 -19.295400 74.134500 -2.017500 -4.474800 -28.730300 -0.354100 3.823100 -10.579600 1.282400 -0.296200 -3.232400 1.153500 -0.328000 -9.511300 0.512300 -0.219300 -8.154600 4.020000 -0.253900 -28.804900 0.158900 -1.959100 14.321000 -0.886500 -0.655400 9.101700 -0.000000 0.000000 0.000000 14.162100 -30.661000 -18.879900 129.971700 -53.006900 93.803300 -21.420400 -21.618800 -19.569900 0.000000 0.000000 0.000000 -7.125000 0.000000 0.000000 -44.329800 44.668200 -0.459600 -0.000000 0.000000 0.000000 -7.534500 -32.783300 29.490700 -128.170500 -53.707300 -92.357900 19.605500 8.595200 20.448700 0.000000 0.000000 0.000000 7.125000 0.000000 -0.000000 43.560300 45.619200 -0.828700
5.909179 14.013282 -1.237113 -1.160976 -4.552744 34.949367 0.000000 0.000000 0.000000 -5.682126 -20.920157 -78.498390 13.191281 18.850108 69.718617 1.677513 0.312197 -24.622452 0.520387 -4.623241 -12.837100 0.000000 0.000000 0.000000 6.319334 23.104209 -77.478246 -14.633066 -19.294908 74.128952 -2.015845 -4.482406 -28.723365 -0.355219 3.829006 -10.596110 1.279671 -0.305730 -3.230655 1.162448 -0.340483 -9.503828 0.523620 -0.224937 -8.147307 3.876291 -0.424588 -28.813446 0.270485 -2.155290 14.228744 -0.854197 -0.743495 9.069755 0.000000 0.000000 0.000000 14.105905 -30.625341 -18.931710 129.937070 -53.020815 93.775605 -21.163317 -21.471467 -19.418988 0.000000 0.000000 0.000000 -7.125000 0.000000 0.000000 -44.047617 44.585250 -0.567963 0.000000 0.000000 0.000000 -7.526268 -32.749565 29.565239 -128.107191 -53.730968 -92.306895 19.116747 8.748439 20.293045 0.000000 0.000000 0.000000 7.125000 0.000000 0.000000 43.092620 45.565332 -0.746197
5.909358 14.013863 -1.237426 -1.153951 -4.544288 34.959434 0.000000 0.000000 0.000000 -5.679352 -20.935414 -78.500179 13.185062 18.847915 69.699333 1.676126 0.310094 -24.611803 0.518373 -4.614382 -12.812000 0.000000 0.000000 0.000000 6.312667 23.092219 -77.490192 -14.631231 -19.294416 74.123404 -2.014189 -4.490012 -28.716430 -0.356337 3.834912 -10.612619 1.276942 -0.315260 -3.228910 1.171396 -0.352966 -9.496356 0.534939 -0.230575 -8.140014 3.732582 -0.595276 -28.821991 0.382069 -2.351481 14.136487 -0.821894 -0.831591 9.037810 0.000000 0.000000 0.000000 14.049710 -30.589682 -18.983521 129.902441 -53.034729 93.747910 -20.906234 -21.324134 -19.268076 0.000000 0.000000 0.000000 -7.125000 0.000000 0.000000 -43.765434 44.502299 -0.676327 0.000000 0.000000 0.000000 -7.518035 -32.715830 29.639778 -128.043882 -53.754636 -92.255890 18.627993 8.901677 20.137390 0.000000 0.000000 0.000000 7.125000 0.000000 0.000000 42.624940 45.511463 -0.663694
5.909263 14.014479 -1.237500 -1.149631 -4.542095 34.969979 0.000000 0.000000 0.000000 -5.675723 -20.945571 -78.503954 13.180588 18.846373 69.685491 1.675287 0.316137 -24.607623 0.517558 -4.610897 -12.802096 0.000000 0.000000 0.000000 6.305522 23.089845 -77.499468 -14.627959 -19.293547 74.113441 -2.013287 -4.493237 -28.712096 -0.356326 3.834863 -10.612530 1.282837 -0.296213 -3.221039 1.164465 -0.326570 -9.545012 0.523979 -0.218382 -8.198499 3.524909 -0.825136 -28.603223 0.539890 -2.601060 13.992484 -0.769330 -0.945252 8.953776 0.000000 0.000000 0.000000 13.939921 -30.439682 -19.159324 129.887695 -53.040669 93.736130 -20.622353 -21.194598 -19.111859 0.000000 0.000000 0.000000 -7.125000 0.000000 0.000000 -43.460869 44.418015 -0.782260 0.000000 0.000000 0.000000 -7.535368 -32.527575 29.652440 -128.014797 -53.765470 -92.232435 18.115968 9.070762 19.990497 0.000000 0.000000 0.000000 7.125000 0.000000 0.000000 42.143604 45.466185 -0.595668
5.909084 14.015106 -1.237500 -1.146141 -4.541826 34.980673 0.000000 0.000000 0.000000 -5.671830 -20.954161 -78.508339 13.176651 18.845031 69.673322 1.674616 0.324682 -24.605431 0.517110 -4.609062 -12.796861 0.000000 0.000000 0.000000 6.298229 23.090427 -77.507924 -14.624246 -19.292563 74.102122 -2.012616 -4.495117 -28.708562 -0.355968 3.832983 -10.607340 1.291382 -0.268384 -3.211286 1.152653 -0.288227 -9.610915 0.506172 -0.200709 -8.277199 3.297579 -1.073182 -28.314597 0.711920 -2.867047 13.832579 -0.710540 -1.066769 8.853734 0.000000 0.000000 0.000000 13.813661 -30.254543 -19.373231 129.879060 -53.044159 93.729239 -20.330238 -21.070530 -18.954012 0.000000 0.000000 0.000000 -7.125000 0.000000 0.000000 -43.149425 44.333319 -0.887447 0.000000 0.000000 0.000000 -7.560557 -32.291834 29.646087 -127.996230 -53.772361 -92.217447 17.596791 9.244716 19.846296 0.000000 0.000000 0.000000 7.125000 0.000000 0.000000 41.658072 45.423546 -0.532091
5.908953 14.016016 -1.237287 -1.151754 -4.533806 34.989564 0.000000 0.000000 0.000000 -5.659522 -20.958437 -78.511917 13.172951 18.843736 69.661816 1.674181 0.326614 -24.602883 0.516971 -4.608484 -12.795230 0.000000 0.000000 0.000000 6.305491 23.091577 -77.506045 -14.619323 -19.291247 74.087223 -2.011897 -4.498347 -28.705525 -0.355729 3.831721 -10.603833 1.290445 -0.273980 -3.198687 1.160636 -0.294831 -9.629952 0.515769 -0.203684 -8.305571 3.130794 -1.269239 -28.200639 0.869869 -3.091761 13.708850 -0.661422 -1.165623 8.794515 0.000000 0.000000 0.000000 13.757856 -30.145264 -19.458841 129.866466 -53.049214 93.719173 -20.107439 -20.967229 -18.818093 0.000000 0.000000 0.000000 -7.125000 0.000000 0.000000 -42.902581 44.255997 -0.982866 0.000000 0.000000 0.000000 -7.538808 -32.184295 29.739442 -127.931719 -53.796272 -92.165358 17.077495 9.433154 19.680759 0.000000 0.000000 0.000000 7.125000 0.000000 0.000000 41.158435 45.362583 -0.448648
5.908863 14.017180 -1.236884 -1.165445 -4.518907 34.996857 0.000000 0.000000 0.000000 -5.639746 -20.958884 -78.514781 13.169461 18.842483 69.650899 1.673958 0.322677 -24.600019 0.517105 -4.609021 -12.796796 0.000000 0.000000 0.000000 6.325670 23.093233 -77.494993 -14.613328 -19.289636 74.069147 -2.011136 -4.502776 -28.702930 -0.355595 3.831005 -10.601820 1.281094 -0.309237 -3.183565 1.186183 -0.341317 -9.607403 0.549683 -0.224981 -8.289285 3.017733 -1.419167 -28.241666 1.015323 -3.279853 13.617220 -0.620887 -1.244367 8.771518 0.000000 0.000000 0.000000 13.764567 -30.103296 -19.430610 129.850359 -53.055656 93.706287 -19.946147 -20.882355 -18.701631 0.000000 0.000000 0.000000 -7.125000 0.000000 0.000000 -42.713057 44.185216 -1.069620 0.000000 0.000000 0.000000 -7.475410 -32.190514 29.921270 -127.826443 -53.835286 -92.080350 16.558094 9.634445 19.496291 0.000000 0.000000 0.000000 7.125000 0.000000 0.000000 40.646282 45.285360 -0.347577
5.908760 14.018264 -1.236574 -1.176208 -4.505802 35.004097 0.000000 0.000000 0.000000 -5.622793 -20.960783 -78.516985 13.165826 18.841191 69.639613 1.673668 0.319702 -24.596998 0.517015 -4.608595 -12.795592 0.000000 0.000000 0.000000 6.341799 23.094176 -77.486290 -14.607689 -19.288118 74.052114 -2.010349 -4.506942 -28.699979 -0.355447 3.830197 -10.599543 1.272640 -0.338162 -3.169181 1.207669 -0.379349 -9.592568 0.578546 -0.242348 -8.281124 2.890864 -1.579804 -28.254193 1.165603 -3.476742 13.522055 -0.577555 -1.327781 8.743470 0.000000 0.000000 0.000000 13.757958 -30.050805 -19.426592 129.832247 -53.062904 93.691806 -19.775003 -20.798431 -18.581767 0.000000 0.000000 0.000000 -7.125000 0.000000 0.000000 -42.514446 44.112906 -1.157217 0.000000 0.000000 0.000000 -7.422299 -32.174207 30.083949 -127.727511 -53.871874 -92.000459 16.037493 9.833929 19.310729 0.000000 0.000000 0.000000 7.125000 0.000000 0.000000 40.132375 45.206607 -0.246942
5.908626 14.019159 -1.236484 -1.179966 -4.496988 35.011211 0.000000 0.000000 0.000000 -5.612592 -20.966152 -78.517611 13.161844 18.839804 69.627443 1.673221 0.319031 -24.593597 0.516389 -4.605866 -12.787762 0.000000 0.000000 0.000000 6.348242 23.093415 -77.483203 -14.602902 -19.286820 74.037573 -2.009499 -4.510476 -28.696176 -0.355268 3.829168 -10.596635 1.266332 -0.351942 -3.156564 1.219436 -0.397156 -9.596192 0.595324 -0.250312 -8.292398 2.730959 -1.766062 -28.198535 1.327432 -3.694676 13.418434 -0.527534 -1.422364 8.703337 0.000000 0.000000 0.000000 13.719480 -29.973134 -19.480506 129.809340 -53.072076 93.673507 -19.580289 -20.716778 -18.453763 0.000000 0.000000 0.000000 -7.125000 0.000000 0.000000 -42.294095 44.036935 -1.246834 0.000000 0.000000 0.000000 -7.393799 -32.104008 30.200813 -127.643755 -53.902656 -91.932810 15.514020 10.029090 19.122547 0.000000 0.000000 0.000000 7.125000 0.000000 0.000000 39.614272 45.124193 -0.147348
